<?xml version="1.0" encoding="iso-8859-1"?>
<!-- Uploaded to: SVG Repo, www.svgrepo.com, Generator: SVG Repo Mixer Tools -->
<!DOCTYPE svg PUBLIC "-//W3C//DTD SVG 1.1//EN" "http://www.w3.org/Graphics/SVG/1.1/DTD/svg11.dtd">
<svg fill="#000000" height="800px" width="800px" version="1.1" id="Capa_1" xmlns="http://www.w3.org/2000/svg" xmlns:xlink="http://www.w3.org/1999/xlink" 
	 viewBox="0 0 59.996 59.996" xml:space="preserve">
<g>
	<path d="M46.025,13.794L56.605,3.308C56.998,2.919,57,2.286,56.612,1.894c-0.389-0.392-1.021-0.394-1.415-0.006L44.61,12.379
		l-2.83-2.831c-1.134-1.134-3.111-1.133-4.245,0l-24.04,24.04c-0.246,0.246-0.434,0.532-0.579,0.837l-2.25-2.25
		c-0.391-0.391-1.023-0.391-1.414,0s-0.391,1.023,0,1.414l4.95,4.95l-4.299,4.299c-2.627-0.679-5.535,0-7.588,2.053
		c-3.086,3.086-3.086,8.106,0,11.192c1.543,1.543,3.569,2.314,5.596,2.314s4.053-0.771,5.596-2.314
		c2.053-2.053,2.732-4.962,2.053-7.589l4.299-4.299l4.95,4.95c0.195,0.195,0.451,0.293,0.707,0.293s0.512-0.098,0.707-0.293
		c0.391-0.391,0.391-1.023,0-1.414l-2.252-2.252c0.302-0.143,0.589-0.328,0.839-0.577l24.04-24.04
		c0.567-0.567,0.879-1.321,0.879-2.123c0-0.801-0.313-1.555-0.879-2.122L46.025,13.794z M14.91,35.002l7.07-7.07l1.414,1.414
		l-7.778,7.778l-0.706-0.706c-0.189-0.189-0.293-0.441-0.293-0.708C14.616,35.443,14.72,35.192,14.91,35.002z M17.03,38.539
		l7.778-7.778l2.829,2.829l-7.778,7.778L17.03,38.539z M12.093,54.669c-2.306,2.306-6.059,2.306-8.364,0
		c-2.306-2.306-2.306-6.058,0-8.364c1.153-1.153,2.667-1.729,4.182-1.729c0.708,0,1.412,0.138,2.083,0.39
		c0.098,0.037,0.194,0.077,0.289,0.119c0.285,0.125,0.565,0.265,0.831,0.437c0.048,0.031,0.093,0.067,0.14,0.099
		c0.294,0.202,0.578,0.424,0.839,0.685s0.483,0.545,0.685,0.839c0.032,0.048,0.069,0.092,0.1,0.141
		c0.171,0.266,0.311,0.545,0.436,0.83c0.042,0.096,0.083,0.192,0.12,0.291C14.223,50.511,13.784,52.978,12.093,54.669z
		 M14.738,46.488c-0.019-0.033-0.044-0.062-0.064-0.095c-0.125-0.206-0.26-0.406-0.405-0.602c-0.049-0.066-0.095-0.134-0.146-0.199
		c-0.191-0.242-0.393-0.478-0.616-0.701c-0.223-0.223-0.458-0.425-0.7-0.616c-0.065-0.051-0.134-0.098-0.201-0.147
		c-0.197-0.145-0.398-0.281-0.605-0.406c-0.032-0.019-0.06-0.043-0.092-0.062l3.706-3.707l2.829,2.829L14.738,46.488z
		 M23.395,43.487c-0.391,0.391-1.025,0.39-1.416,0l-0.707-0.707l7.778-7.778l1.414,1.414L23.395,43.487z M47.435,19.448
		L31.879,35.003l-1.414-1.414l-5.657-5.657l-1.414-1.414l15.555-15.556c0.189-0.189,0.441-0.293,0.708-0.293
		c0.267,0,0.519,0.104,0.708,0.293l3.531,3.531l0,0.001c0,0,0,0,0,0l3.537,3.537c0.189,0.189,0.293,0.441,0.293,0.708
		C47.728,19.007,47.624,19.258,47.435,19.448z"/>
	<circle cx="36.829" cy="26.518" r="1.5"/>
	<circle cx="41.779" cy="21.568" r="1.5"/>
	<circle cx="30.465" cy="22.982" r="1.5"/>
	<circle cx="36.122" cy="20.154" r="1.5"/>
	<circle cx="39.657" cy="15.204" r="1.5"/>
	<path d="M58.822,14.875l-3.326-5.374l-3.363,5.442c-1.571,3.046-1.51,5.449,0.182,7.141c0.877,0.877,2.029,1.316,3.182,1.316
		c1.153,0,2.305-0.438,3.182-1.316C60.38,20.38,60.438,17.483,58.822,14.875z M57.264,20.669c-0.945,0.944-2.592,0.944-3.536,0
		c-0.375-0.375-1.516-1.517,0.144-4.742l1.624-2.625l1.625,2.626C58.238,17.731,58.296,19.636,57.264,20.669z"/>
</g>
</svg>